# xmcd
#
# Track frame offsets:
#	150
#	23102
#	44105
#	65265
#	85657
#	107042
#	130685
#	150060
#	171712
#	193047
#	213140
#	232920
#
# Disc length: 3446 seconds
# Revision: 7
# Processed by: cddbd v1.5.2PL0 Copyright (c) Steve Scherf et al.
# Submitted via: dBpowerAMP V12.0
#
DISCID=950d740c
DTITLE=Various Artist - True To Life
DYEAR=1994
DGENRE=Pop
TTITLE0=LisetteMelendez,EastHarlem,Manhattan,NYC - Will You Ever Save Me
TTITLE1=LisetteMelendez,EastHarlem,Manhattan,NYC - How 'Bout You
TTITLE2=LisetteMelendez,EastHarlem,Manhattan,NYC - Love Type Situation
TTITLE3=LisetteMelendez,EastHarlem,Manhattan,NYC - Honestly
TTITLE4=LisetteMelendez,EastHarlem,Manhattan,NYC - Going My Way
TTITLE5=LisetteMelendez,EastHarlem,Manhattan,NYC - Goody Goody
TTITLE6=LisetteMelendez,EastHarlem,Manhattan,NYC - My Warning (Take This Love And Run)
TTITLE7=LisetteMelendez,EastHarlem,Manhattan,NYC - Love Me Need Me
TTITLE8=LisetteMelendez,EastHarlem,Manhattan,NYC - On Again Off Again
TTITLE9=LisetteMelendez,EastHarlem,Manhattan,NYC - I Know That You Know
TTITLE10=LisetteMelendez,EastHarlem,Manhattan,NYC,withKillerRanks - Love Type Situation Reprise{Abrazame}
TTITLE11=LisetteMelendez,EastHarlem,Manhattan,NYC - Goody Goody (Hip Hop Mix) (With Greg Nice)
EXTD=
EXTT0=
EXTT1=
EXTT2=
EXTT3=
EXTT4=
EXTT5=
EXTT6=
EXTT7=
EXTT8=
EXTT9=
EXTT10=
EXTT11=
PLAYORDER=
